# xmcd
#
# Track frame offsets: 
#        150
#        9623
#        24483
#        50502
#        66736
#        83683
#        100829
#        119741
#        143114
#        163644
#        183334
#        196889
#        211737
#        227615
#        247428
#        256586
#        271240
#        285699
#        319622
#        327214
#
# Disc length: 4578 seconds
#
# Revision: 0
# Processed by: cddbd v1.5.2PL0 Copyright (c) Steve Scherf et al.
# Submitted via: ExactAudioCopy v0.99pb4
#
DISCID=2011e014
DTITLE=Various Artist - 100 Hits Love (The Ultimate Collection) [CD4)
DYEAR=2008
DGENRE=Pop
TTITLE0=Bill Withers - Ain'T No Sunshine
TTITLE1=Harry Nilsson - Without You
TTITLE2=Extreme - More Than Words
TTITLE3=Paul Weller - You Do Something To Me
TTITLE4=Roachford - The Way I Feel
TTITLE5=Level 42 - Something About You
TTITLE6=Let Loose - Crazy For You
TTITLE7=The Style Council - You'Re The Best Thing
TTITLE8=Squeeze - Labelled With Love
TTITLE9=Joan Armatrading - Love And Affection
TTITLE10=The Mamas and The Papas - Dedicated To The One I Love
TTITLE11=PP Arnold - First Cut Is The Deepest
TTITLE12=Bonnie Tyler - It's A Heartache
TTITLE13=The Korgis - (Everybody's Gotta Learn Sometime) I Need Your
TTITLE14=The Mindbenders - A Groovy Kind Of Love
TTITLE15=Mama Cass - Dream A Little Dream Of Me
TTITLE16=Finley Quaye - Your Love Gets Sweeter
TTITLE17=Third World - Now That We Found Love
TTITLE18=The Reel and Soul Association - Are You Sure
TTITLE19=Savannah Love - Forever My Love
EXTD=
EXTT0=
EXTT1=
EXTT2=
EXTT3=
EXTT4=
EXTT5=
EXTT6=
EXTT7=
EXTT8=
EXTT9=
EXTT10=
EXTT11=
EXTT12=
EXTT13=
EXTT14=
EXTT15=
EXTT16=
EXTT17=
EXTT18=
EXTT19=
PLAYORDER=
